<svg width="21" height="25" viewBox="0 0 21 25" fill="none" xmlns="http://www.w3.org/2000/svg">
<g clip-path="url(#clip0_216_7843)">
<path d="M10.5048 7.10937C7.52354 7.10937 5.11885 9.51406 5.11885 12.4953C5.11885 15.4766 7.52354 17.8812 10.5048 17.8812C13.486 17.8812 15.8907 15.4766 15.8907 12.4953C15.8907 9.51406 13.486 7.10937 10.5048 7.10937ZM10.5048 15.9969C8.57822 15.9969 7.00322 14.4266 7.00322 12.4953C7.00322 10.5641 8.57353 8.99374 10.5048 8.99374C12.436 8.99374 14.0063 10.5641 14.0063 12.4953C14.0063 14.4266 12.4313 15.9969 10.5048 15.9969ZM17.3673 6.88906C17.3673 7.58749 16.8048 8.14531 16.111 8.14531C15.4126 8.14531 14.8548 7.58281 14.8548 6.88906C14.8548 6.19531 15.4173 5.63281 16.111 5.63281C16.8048 5.63281 17.3673 6.19531 17.3673 6.88906ZM20.9345 8.16406C20.8548 6.48124 20.4704 4.99062 19.2376 3.76249C18.0095 2.53437 16.5188 2.14999 14.836 2.06562C13.1017 1.96718 7.90322 1.96718 6.16885 2.06562C4.49072 2.14531 3.0001 2.52968 1.76729 3.75781C0.534473 4.98593 0.154785 6.47656 0.0704102 8.15937C-0.0280273 9.89374 -0.0280273 15.0922 0.0704102 16.8266C0.150098 18.5094 0.534473 20 1.76729 21.2281C3.0001 22.4562 4.48604 22.8406 6.16885 22.925C7.90322 23.0234 13.1017 23.0234 14.836 22.925C16.5188 22.8453 18.0095 22.4609 19.2376 21.2281C20.4657 20 20.8501 18.5094 20.9345 16.8266C21.0329 15.0922 21.0329 9.89843 20.9345 8.16406ZM18.6938 18.6875C18.3282 19.6062 17.6204 20.3141 16.697 20.6844C15.3142 21.2328 12.0329 21.1062 10.5048 21.1062C8.97666 21.1062 5.69072 21.2281 4.3126 20.6844C3.39385 20.3187 2.68604 19.6109 2.31572 18.6875C1.76729 17.3047 1.89385 14.0234 1.89385 12.4953C1.89385 10.9672 1.77197 7.68124 2.31572 6.30312C2.68135 5.38437 3.38916 4.67656 4.3126 4.30624C5.69541 3.75781 8.97666 3.88437 10.5048 3.88437C12.0329 3.88437 15.3188 3.76249 16.697 4.30624C17.6157 4.67187 18.3235 5.37968 18.6938 6.30312C19.2423 7.68593 19.1157 10.9672 19.1157 12.4953C19.1157 14.0234 19.2423 17.3094 18.6938 18.6875Z" fill="white"/>
</g>
<defs>
<clipPath id="clip0_216_7843">
<rect width="21" height="24" fill="white" transform="translate(0 0.5)"/>
</clipPath>
</defs>
</svg>
