<svg width="74" height="75" viewBox="0 0 74 75" fill="none" xmlns="http://www.w3.org/2000/svg">
<g filter="url(#filter0_d_216_7852)">
<path d="M37 66.5C53.0163 66.5 66 53.5163 66 37.5C66 21.4837 53.0163 8.5 37 8.5C20.9837 8.5 8 21.4837 8 37.5C8 53.5163 20.9837 66.5 37 66.5Z" fill="white"/>
</g>
<path d="M36.9999 63.8636C51.5601 63.8636 63.3635 52.0602 63.3635 37.5C63.3635 22.9398 51.5601 11.1364 36.9999 11.1364C22.4396 11.1364 10.6362 22.9398 10.6362 37.5C10.6362 52.0602 22.4396 63.8636 36.9999 63.8636Z" fill="#E41920"/>
<path d="M19.8638 25.6364C19.8638 24.8982 20.4438 24.3182 21.182 24.3182C21.9201 24.3182 22.5001 24.8982 22.5001 25.6364C22.5001 26.3745 21.9201 26.9545 21.182 26.9545C20.4438 26.9545 19.8638 26.3745 19.8638 25.6364ZM19.8638 28.2727C19.8638 27.5345 20.4438 26.9545 21.182 26.9545C21.9201 26.9545 22.5001 27.5345 22.5001 28.2727C22.5001 29.0109 21.9201 29.5909 21.182 29.5909C20.4438 29.5909 19.8638 29.0109 19.8638 28.2727ZM19.8638 30.9091C19.8638 30.1709 20.4438 29.5909 21.182 29.5909C21.9201 29.5909 22.5001 30.1709 22.5001 30.9091C22.5001 31.6473 21.9201 32.2273 21.182 32.2273C20.4438 32.2273 19.8638 31.6473 19.8638 30.9091ZM19.8638 33.5454C19.8638 32.8073 20.4438 32.2273 21.182 32.2273C21.9201 32.2273 22.5001 32.8073 22.5001 33.5454C22.5001 34.2836 21.9201 34.8636 21.182 34.8636C20.4438 34.8636 19.8638 34.2836 19.8638 33.5454ZM19.8638 36.1818C19.8638 35.4436 20.4438 34.8636 21.182 34.8636C21.9201 34.8636 22.5001 35.4436 22.5001 36.1818C22.5001 36.92 21.9201 37.5 21.182 37.5C20.4438 37.5 19.8638 36.92 19.8638 36.1818ZM19.8638 38.8182C19.8638 38.08 20.4438 37.5 21.182 37.5C21.9201 37.5 22.5001 38.08 22.5001 38.8182C22.5001 39.5564 21.9201 40.1364 21.182 40.1364C20.4438 40.1364 19.8638 39.5564 19.8638 38.8182ZM19.8638 41.4545C19.8638 40.7164 20.4438 40.1364 21.182 40.1364C21.9201 40.1364 22.5001 40.7164 22.5001 41.4545C22.5001 42.1927 21.9201 42.7727 21.182 42.7727C20.4438 42.7727 19.8638 42.1927 19.8638 41.4545ZM19.8638 44.0909C19.8638 43.3527 20.4438 42.7727 21.182 42.7727C21.9201 42.7727 22.5001 43.3527 22.5001 44.0909C22.5001 44.8291 21.9201 45.4091 21.182 45.4091C20.4438 45.4091 19.8638 44.8291 19.8638 44.0909ZM19.8638 46.7273C19.8638 45.9891 20.4438 45.4091 21.182 45.4091C21.9201 45.4091 22.5001 45.9891 22.5001 46.7273C22.5001 47.4654 21.9201 48.0454 21.182 48.0454C20.4438 48.0454 19.8638 47.4654 19.8638 46.7273ZM19.8638 49.3636C19.8638 48.6254 20.4438 48.0454 21.182 48.0454C21.9201 48.0454 22.5001 48.6254 22.5001 49.3636C22.5001 50.1018 21.9201 50.6818 21.182 50.6818C20.4438 50.6818 19.8638 50.1018 19.8638 49.3636ZM22.5001 25.6364C22.5001 24.8982 23.0801 24.3182 23.8183 24.3182C24.5565 24.3182 25.1365 24.8982 25.1365 25.6364C25.1365 26.3745 24.5565 26.9545 23.8183 26.9545C23.0801 26.9545 22.5001 26.3745 22.5001 25.6364ZM22.5001 28.2727C22.5001 27.5345 23.0801 26.9545 23.8183 26.9545C24.5565 26.9545 25.1365 27.5345 25.1365 28.2727C25.1365 29.0109 24.5565 29.5909 23.8183 29.5909C23.0801 29.5909 22.5001 29.0109 22.5001 28.2727ZM22.5001 30.9091C22.5001 30.1709 23.0801 29.5909 23.8183 29.5909C24.5565 29.5909 25.1365 30.1709 25.1365 30.9091C25.1365 31.6473 24.5565 32.2273 23.8183 32.2273C23.0801 32.2273 22.5001 31.6473 22.5001 30.9091ZM22.5001 33.5454C22.5001 32.8073 23.0801 32.2273 23.8183 32.2273C24.5565 32.2273 25.1365 32.8073 25.1365 33.5454C25.1365 34.2836 24.5565 34.8636 23.8183 34.8636C23.0801 34.8636 22.5001 34.2836 22.5001 33.5454ZM22.5001 36.1818C22.5001 35.4436 23.0801 34.8636 23.8183 34.8636C24.5565 34.8636 25.1365 35.4436 25.1365 36.1818C25.1365 36.92 24.5565 37.5 23.8183 37.5C23.0801 37.5 22.5001 36.92 22.5001 36.1818ZM22.5001 38.8182C22.5001 38.08 23.0801 37.5 23.8183 37.5C24.5565 37.5 25.1365 38.08 25.1365 38.8182C25.1365 39.5564 24.5565 40.1364 23.8183 40.1364C23.0801 40.1364 22.5001 39.5564 22.5001 38.8182ZM22.5001 41.4545C22.5001 40.7164 23.0801 40.1364 23.8183 40.1364C24.5565 40.1364 25.1365 40.7164 25.1365 41.4545C25.1365 42.1927 24.5565 42.7727 23.8183 42.7727C23.0801 42.7727 22.5001 42.1927 22.5001 41.4545ZM22.5001 44.0909C22.5001 43.3527 23.0801 42.7727 23.8183 42.7727C24.5565 42.7727 25.1365 43.3527 25.1365 44.0909C25.1365 44.8291 24.5565 45.4091 23.8183 45.4091C23.0801 45.4091 22.5001 44.8291 22.5001 44.0909ZM22.5001 46.7273C22.5001 45.9891 23.0801 45.4091 23.8183 45.4091C24.5565 45.4091 25.1365 45.9891 25.1365 46.7273C25.1365 47.4654 24.5565 48.0454 23.8183 48.0454C23.0801 48.0454 22.5001 47.4654 22.5001 46.7273ZM22.5001 49.3636C22.5001 48.6254 23.0801 48.0454 23.8183 48.0454C24.5565 48.0454 25.1365 48.6254 25.1365 49.3636C25.1365 50.1018 24.5565 50.6818 23.8183 50.6818C23.0801 50.6818 22.5001 50.1018 22.5001 49.3636ZM25.1365 25.6364C25.1365 24.8982 25.7165 24.3182 26.4547 24.3182C27.1929 24.3182 27.7729 24.8982 27.7729 25.6364C27.7729 26.3745 27.1929 26.9545 26.4547 26.9545C25.7165 26.9545 25.1365 26.3745 25.1365 25.6364ZM25.1365 28.2727C25.1365 27.5345 25.7165 26.9545 26.4547 26.9545C27.1929 26.9545 27.7729 27.5345 27.7729 28.2727C27.7729 29.0109 27.1929 29.5909 26.4547 29.5909C25.7165 29.5909 25.1365 29.0109 25.1365 28.2727ZM25.1365 30.9091C25.1365 30.1709 25.7165 29.5909 26.4547 29.5909C27.1929 29.5909 27.7729 30.1709 27.7729 30.9091C27.7729 31.6473 27.1929 32.2273 26.4547 32.2273C25.7165 32.2273 25.1365 31.6473 25.1365 30.9091ZM25.1365 33.5454C25.1365 32.8073 25.7165 32.2273 26.4547 32.2273C27.1929 32.2273 27.7729 32.8073 27.7729 33.5454C27.7729 34.2836 27.1929 34.8636 26.4547 34.8636C25.7165 34.8636 25.1365 34.2836 25.1365 33.5454ZM25.1365 36.1818C25.1365 35.4436 25.7165 34.8636 26.4547 34.8636C27.1929 34.8636 27.7729 35.4436 27.7729 36.1818C27.7729 36.92 27.1929 37.5 26.4547 37.5C25.7165 37.5 25.1365 36.92 25.1365 36.1818ZM27.7729 25.6364C27.7729 24.8982 28.3529 24.3182 29.091 24.3182C29.8292 24.3182 30.4092 24.8982 30.4092 25.6364C30.4092 26.3745 29.8292 26.9545 29.091 26.9545C28.3529 26.9545 27.7729 26.3745 27.7729 25.6364ZM27.7729 28.2727C27.7729 27.5345 28.3529 26.9545 29.091 26.9545C29.8292 26.9545 30.4092 27.5345 30.4092 28.2727C30.4092 29.0109 29.8292 29.5909 29.091 29.5909C28.3529 29.5909 27.7729 29.0109 27.7729 28.2727ZM27.7729 30.9091C27.7729 30.1709 28.3529 29.5909 29.091 29.5909C29.8292 29.5909 30.4092 30.1709 30.4092 30.9091C30.4092 31.6473 29.8292 32.2273 29.091 32.2273C28.3529 32.2273 27.7729 31.6473 27.7729 30.9091ZM27.7729 33.5454C27.7729 32.8073 28.3529 32.2273 29.091 32.2273C29.8292 32.2273 30.4092 32.8073 30.4092 33.5454C30.4092 34.2836 29.8292 34.8636 29.091 34.8636C28.3529 34.8636 27.7729 34.2836 27.7729 33.5454ZM27.7729 36.1818C27.7729 35.4436 28.3529 34.8636 29.091 34.8636C29.8292 34.8636 30.4092 35.4436 30.4092 36.1818C30.4092 36.92 29.8292 37.5 29.091 37.5C28.3529 37.5 27.7729 36.92 27.7729 36.1818ZM27.7729 38.8182C27.7729 38.08 28.3529 37.5 29.091 37.5C29.8292 37.5 30.4092 38.08 30.4092 38.8182C30.4092 39.5564 29.8292 40.1364 29.091 40.1364C28.3529 40.1364 27.7729 39.5564 27.7729 38.8182ZM27.7729 41.4545C27.7729 40.7164 28.3529 40.1364 29.091 40.1364C29.8292 40.1364 30.4092 40.7164 30.4092 41.4545C30.4092 42.1927 29.8292 42.7727 29.091 42.7727C28.3529 42.7727 27.7729 42.1927 27.7729 41.4545ZM30.4092 30.9091C30.4092 30.1709 30.9892 29.5909 31.7274 29.5909C32.4656 29.5909 33.0456 30.1709 33.0456 30.9091C33.0456 31.6473 32.4656 32.2273 31.7274 32.2273C30.9892 32.2273 30.4092 31.6473 30.4092 30.9091ZM30.4092 33.5454C30.4092 32.8073 30.9892 32.2273 31.7274 32.2273C32.4656 32.2273 33.0456 32.8073 33.0456 33.5454C33.0456 34.2836 32.4656 34.8636 31.7274 34.8636C30.9892 34.8636 30.4092 34.2836 30.4092 33.5454ZM30.4092 36.1818C30.4092 35.4436 30.9892 34.8636 31.7274 34.8636C32.4656 34.8636 33.0456 35.4436 33.0456 36.1818C33.0456 36.92 32.4656 37.5 31.7274 37.5C30.9892 37.5 30.4092 36.92 30.4092 36.1818ZM30.4092 38.8182C30.4092 38.08 30.9892 37.5 31.7274 37.5C32.4656 37.5 33.0456 38.08 33.0456 38.8182C33.0456 39.5564 32.4656 40.1364 31.7274 40.1364C30.9892 40.1364 30.4092 39.5564 30.4092 38.8182ZM30.4092 41.4545C30.4092 40.7164 30.9892 40.1364 31.7274 40.1364C32.4656 40.1364 33.0456 40.7164 33.0456 41.4545C33.0456 42.1927 32.4656 42.7727 31.7274 42.7727C30.9892 42.7727 30.4092 42.1927 30.4092 41.4545ZM30.4092 44.0909C30.4092 43.3527 30.9892 42.7727 31.7274 42.7727C32.4656 42.7727 33.0456 43.3527 33.0456 44.0909C33.0456 44.8291 32.4656 45.4091 31.7274 45.4091C30.9892 45.4091 30.4092 44.8291 30.4092 44.0909ZM30.4092 46.7273C30.4092 45.9891 30.9892 45.4091 31.7274 45.4091C32.4656 45.4091 33.0456 45.9891 33.0456 46.7273C33.0456 47.4654 32.4656 48.0454 31.7274 48.0454C30.9892 48.0454 30.4092 47.4654 30.4092 46.7273ZM33.0456 36.1818C33.0456 35.4436 33.6256 34.8636 34.3638 34.8636C35.102 34.8636 35.682 35.4436 35.682 36.1818C35.682 36.92 35.102 37.5 34.3638 37.5C33.6256 37.5 33.0456 36.92 33.0456 36.1818ZM33.0456 38.8182C33.0456 38.08 33.6256 37.5 34.3638 37.5C35.102 37.5 35.682 38.08 35.682 38.8182C35.682 39.5564 35.102 40.1364 34.3638 40.1364C33.6256 40.1364 33.0456 39.5564 33.0456 38.8182ZM33.0456 41.4545C33.0456 40.7164 33.6256 40.1364 34.3638 40.1364C35.102 40.1364 35.682 40.7164 35.682 41.4545C35.682 42.1927 35.102 42.7727 34.3638 42.7727C33.6256 42.7727 33.0456 42.1927 33.0456 41.4545ZM33.0456 44.0909C33.0456 43.3527 33.6256 42.7727 34.3638 42.7727C35.102 42.7727 35.682 43.3527 35.682 44.0909C35.682 44.8291 35.102 45.4091 34.3638 45.4091C33.6256 45.4091 33.0456 44.8291 33.0456 44.0909ZM33.0456 46.7273C33.0456 45.9891 33.6256 45.4091 34.3638 45.4091C35.102 45.4091 35.682 45.9891 35.682 46.7273C35.682 47.4654 35.102 48.0454 34.3638 48.0454C33.6256 48.0454 33.0456 47.4654 33.0456 46.7273ZM33.0456 49.3636C33.0456 48.6254 33.6256 48.0454 34.3638 48.0454C35.102 48.0454 35.682 48.6254 35.682 49.3636C35.682 50.1018 35.102 50.6818 34.3638 50.6818C33.6256 50.6818 33.0456 50.1018 33.0456 49.3636ZM35.682 41.4545C35.682 40.7164 36.262 40.1364 37.0001 40.1364C37.7383 40.1364 38.3183 40.7164 38.3183 41.4545C38.3183 42.1927 37.7383 42.7727 37.0001 42.7727C36.262 42.7727 35.682 42.1927 35.682 41.4545ZM35.682 44.0909C35.682 43.3527 36.262 42.7727 37.0001 42.7727C37.7383 42.7727 38.3183 43.3527 38.3183 44.0909C38.3183 44.8291 37.7383 45.4091 37.0001 45.4091C36.262 45.4091 35.682 44.8291 35.682 44.0909ZM35.682 46.7273C35.682 45.9891 36.262 45.4091 37.0001 45.4091C37.7383 45.4091 38.3183 45.9891 38.3183 46.7273C38.3183 47.4654 37.7383 48.0454 37.0001 48.0454C36.262 48.0454 35.682 47.4654 35.682 46.7273ZM35.682 49.3636C35.682 48.6254 36.262 48.0454 37.0001 48.0454C37.7383 48.0454 38.3183 48.6254 38.3183 49.3636C38.3183 50.1018 37.7383 50.6818 37.0001 50.6818C36.262 50.6818 35.682 50.1018 35.682 49.3636ZM38.3183 36.1818C38.3183 35.4436 38.8983 34.8636 39.6365 34.8636C40.3747 34.8636 40.9547 35.4436 40.9547 36.1818C40.9547 36.92 40.3747 37.5 39.6365 37.5C38.8983 37.5 38.3183 36.92 38.3183 36.1818ZM38.3183 38.8182C38.3183 38.08 38.8983 37.5 39.6365 37.5C40.3747 37.5 40.9547 38.08 40.9547 38.8182C40.9547 39.5564 40.3747 40.1364 39.6365 40.1364C38.8983 40.1364 38.3183 39.5564 38.3183 38.8182ZM38.3183 41.4545C38.3183 40.7164 38.8983 40.1364 39.6365 40.1364C40.3747 40.1364 40.9547 40.7164 40.9547 41.4545C40.9547 42.1927 40.3747 42.7727 39.6365 42.7727C38.8983 42.7727 38.3183 42.1927 38.3183 41.4545ZM38.3183 44.0909C38.3183 43.3527 38.8983 42.7727 39.6365 42.7727C40.3747 42.7727 40.9547 43.3527 40.9547 44.0909C40.9547 44.8291 40.3747 45.4091 39.6365 45.4091C38.8983 45.4091 38.3183 44.8291 38.3183 44.0909ZM38.3183 46.7273C38.3183 45.9891 38.8983 45.4091 39.6365 45.4091C40.3747 45.4091 40.9547 45.9891 40.9547 46.7273C40.9547 47.4654 40.3747 48.0454 39.6365 48.0454C38.8983 48.0454 38.3183 47.4654 38.3183 46.7273ZM40.9547 30.9091C40.9547 30.1709 41.5347 29.5909 42.2729 29.5909C43.011 29.5909 43.591 30.1709 43.591 30.9091C43.591 31.6473 43.011 32.2273 42.2729 32.2273C41.5347 32.2273 40.9547 31.6473 40.9547 30.9091ZM40.9547 33.5454C40.9547 32.8073 41.5347 32.2273 42.2729 32.2273C43.011 32.2273 43.591 32.8073 43.591 33.5454C43.591 34.2836 43.011 34.8636 42.2729 34.8636C41.5347 34.8636 40.9547 34.2836 40.9547 33.5454ZM40.9547 36.1818C40.9547 35.4436 41.5347 34.8636 42.2729 34.8636C43.011 34.8636 43.591 35.4436 43.591 36.1818C43.591 36.92 43.011 37.5 42.2729 37.5C41.5347 37.5 40.9547 36.92 40.9547 36.1818ZM40.9547 38.8182C40.9547 38.08 41.5347 37.5 42.2729 37.5C43.011 37.5 43.591 38.08 43.591 38.8182C43.591 39.5564 43.011 40.1364 42.2729 40.1364C41.5347 40.1364 40.9547 39.5564 40.9547 38.8182ZM40.9547 41.4545C40.9547 40.7164 41.5347 40.1364 42.2729 40.1364C43.011 40.1364 43.591 40.7164 43.591 41.4545C43.591 42.1927 43.011 42.7727 42.2729 42.7727C41.5347 42.7727 40.9547 42.1927 40.9547 41.4545ZM43.591 25.6364C43.591 24.8982 44.171 24.3182 44.9092 24.3182C45.6474 24.3182 46.2274 24.8982 46.2274 25.6364C46.2274 26.3745 45.6474 26.9545 44.9092 26.9545C44.171 26.9545 43.591 26.3745 43.591 25.6364ZM43.591 28.2727C43.591 27.5345 44.171 26.9545 44.9092 26.9545C45.6474 26.9545 46.2274 27.5345 46.2274 28.2727C46.2274 29.0109 45.6474 29.5909 44.9092 29.5909C44.171 29.5909 43.591 29.0109 43.591 28.2727ZM43.591 30.9091C43.591 30.1709 44.171 29.5909 44.9092 29.5909C45.6474 29.5909 46.2274 30.1709 46.2274 30.9091C46.2274 31.6473 45.6474 32.2273 44.9092 32.2273C44.171 32.2273 43.591 31.6473 43.591 30.9091ZM43.591 33.5454C43.591 32.8073 44.171 32.2273 44.9092 32.2273C45.6474 32.2273 46.2274 32.8073 46.2274 33.5454C46.2274 34.2836 45.6474 34.8636 44.9092 34.8636C44.171 34.8636 43.591 34.2836 43.591 33.5454ZM43.591 36.1818C43.591 35.4436 44.171 34.8636 44.9092 34.8636C45.6474 34.8636 46.2274 35.4436 46.2274 36.1818C46.2274 36.92 45.6474 37.5 44.9092 37.5C44.171 37.5 43.591 36.92 43.591 36.1818ZM46.2274 25.6364C46.2274 24.8982 46.8074 24.3182 47.5456 24.3182C48.2838 24.3182 48.8638 24.8982 48.8638 25.6364C48.8638 26.3745 48.2838 26.9545 47.5456 26.9545C46.8074 26.9545 46.2274 26.3745 46.2274 25.6364ZM46.2274 28.2727C46.2274 27.5345 46.8074 26.9545 47.5456 26.9545C48.2838 26.9545 48.8638 27.5345 48.8638 28.2727C48.8638 29.0109 48.2838 29.5909 47.5456 29.5909C46.8074 29.5909 46.2274 29.0109 46.2274 28.2727ZM46.2274 30.9091C46.2274 30.1709 46.8074 29.5909 47.5456 29.5909C48.2838 29.5909 48.8638 30.1709 48.8638 30.9091C48.8638 31.6473 48.2838 32.2273 47.5456 32.2273C46.8074 32.2273 46.2274 31.6473 46.2274 30.9091ZM46.2274 33.5454C46.2274 32.8073 46.8074 32.2273 47.5456 32.2273C48.2838 32.2273 48.8638 32.8073 48.8638 33.5454C48.8638 34.2836 48.2838 34.8636 47.5456 34.8636C46.8074 34.8636 46.2274 34.2836 46.2274 33.5454ZM46.2274 36.1818C46.2274 35.4436 46.8074 34.8636 47.5456 34.8636C48.2838 34.8636 48.8638 35.4436 48.8638 36.1818C48.8638 36.92 48.2838 37.5 47.5456 37.5C46.8074 37.5 46.2274 36.92 46.2274 36.1818ZM46.2274 38.8182C46.2274 38.08 46.8074 37.5 47.5456 37.5C48.2838 37.5 48.8638 38.08 48.8638 38.8182C48.8638 39.5564 48.2838 40.1364 47.5456 40.1364C46.8074 40.1364 46.2274 39.5564 46.2274 38.8182ZM46.2274 41.4545C46.2274 40.7164 46.8074 40.1364 47.5456 40.1364C48.2838 40.1364 48.8638 40.7164 48.8638 41.4545C48.8638 42.1927 48.2838 42.7727 47.5456 42.7727C46.8074 42.7727 46.2274 42.1927 46.2274 41.4545ZM46.2274 44.0909C46.2274 43.3527 46.8074 42.7727 47.5456 42.7727C48.2838 42.7727 48.8638 43.3527 48.8638 44.0909C48.8638 44.8291 48.2838 45.4091 47.5456 45.4091C46.8074 45.4091 46.2274 44.8291 46.2274 44.0909ZM46.2274 46.7273C46.2274 45.9891 46.8074 45.4091 47.5456 45.4091C48.2838 45.4091 48.8638 45.9891 48.8638 46.7273C48.8638 47.4654 48.2838 48.0454 47.5456 48.0454C46.8074 48.0454 46.2274 47.4654 46.2274 46.7273ZM46.2274 49.3636C46.2274 48.6254 46.8074 48.0454 47.5456 48.0454C48.2838 48.0454 48.8638 48.6254 48.8638 49.3636C48.8638 50.1018 48.2838 50.6818 47.5456 50.6818C46.8074 50.6818 46.2274 50.1018 46.2274 49.3636ZM48.8638 25.6364C48.8638 24.8982 49.4438 24.3182 50.182 24.3182C50.9201 24.3182 51.5001 24.8982 51.5001 25.6364C51.5001 26.3745 50.9201 26.9545 50.182 26.9545C49.4438 26.9545 48.8638 26.3745 48.8638 25.6364ZM48.8638 28.2727C48.8638 27.5345 49.4438 26.9545 50.182 26.9545C50.9201 26.9545 51.5001 27.5345 51.5001 28.2727C51.5001 29.0109 50.9201 29.5909 50.182 29.5909C49.4438 29.5909 48.8638 29.0109 48.8638 28.2727ZM48.8638 30.9091C48.8638 30.1709 49.4438 29.5909 50.182 29.5909C50.9201 29.5909 51.5001 30.1709 51.5001 30.9091C51.5001 31.6473 50.9201 32.2273 50.182 32.2273C49.4438 32.2273 48.8638 31.6473 48.8638 30.9091ZM48.8638 33.5454C48.8638 32.8073 49.4438 32.2273 50.182 32.2273C50.9201 32.2273 51.5001 32.8073 51.5001 33.5454C51.5001 34.2836 50.9201 34.8636 50.182 34.8636C49.4438 34.8636 48.8638 34.2836 48.8638 33.5454ZM48.8638 36.1818C48.8638 35.4436 49.4438 34.8636 50.182 34.8636C50.9201 34.8636 51.5001 35.4436 51.5001 36.1818C51.5001 36.92 50.9201 37.5 50.182 37.5C49.4438 37.5 48.8638 36.92 48.8638 36.1818ZM48.8638 38.8182C48.8638 38.08 49.4438 37.5 50.182 37.5C50.9201 37.5 51.5001 38.08 51.5001 38.8182C51.5001 39.5564 50.9201 40.1364 50.182 40.1364C49.4438 40.1364 48.8638 39.5564 48.8638 38.8182ZM48.8638 41.4545C48.8638 40.7164 49.4438 40.1364 50.182 40.1364C50.9201 40.1364 51.5001 40.7164 51.5001 41.4545C51.5001 42.1927 50.9201 42.7727 50.182 42.7727C49.4438 42.7727 48.8638 42.1927 48.8638 41.4545ZM48.8638 44.0909C48.8638 43.3527 49.4438 42.7727 50.182 42.7727C50.9201 42.7727 51.5001 43.3527 51.5001 44.0909C51.5001 44.8291 50.9201 45.4091 50.182 45.4091C49.4438 45.4091 48.8638 44.8291 48.8638 44.0909ZM48.8638 46.7273C48.8638 45.9891 49.4438 45.4091 50.182 45.4091C50.9201 45.4091 51.5001 45.9891 51.5001 46.7273C51.5001 47.4654 50.9201 48.0454 50.182 48.0454C49.4438 48.0454 48.8638 47.4654 48.8638 46.7273ZM48.8638 49.3636C48.8638 48.6254 49.4438 48.0454 50.182 48.0454C50.9201 48.0454 51.5001 48.6254 51.5001 49.3636C51.5001 50.1018 50.9201 50.6818 50.182 50.6818C49.4438 50.6818 48.8638 50.1018 48.8638 49.3636ZM51.5001 25.6364C51.5001 24.8982 52.0801 24.3182 52.8183 24.3182C53.5565 24.3182 54.1365 24.8982 54.1365 25.6364C54.1365 26.3745 53.5565 26.9545 52.8183 26.9545C52.0801 26.9545 51.5001 26.3745 51.5001 25.6364ZM51.5001 28.2727C51.5001 27.5345 52.0801 26.9545 52.8183 26.9545C53.5565 26.9545 54.1365 27.5345 54.1365 28.2727C54.1365 29.0109 53.5565 29.5909 52.8183 29.5909C52.0801 29.5909 51.5001 29.0109 51.5001 28.2727ZM51.5001 30.9091C51.5001 30.1709 52.0801 29.5909 52.8183 29.5909C53.5565 29.5909 54.1365 30.1709 54.1365 30.9091C54.1365 31.6473 53.5565 32.2273 52.8183 32.2273C52.0801 32.2273 51.5001 31.6473 51.5001 30.9091ZM51.5001 33.5454C51.5001 32.8073 52.0801 32.2273 52.8183 32.2273C53.5565 32.2273 54.1365 32.8073 54.1365 33.5454C54.1365 34.2836 53.5565 34.8636 52.8183 34.8636C52.0801 34.8636 51.5001 34.2836 51.5001 33.5454ZM51.5001 36.1818C51.5001 35.4436 52.0801 34.8636 52.8183 34.8636C53.5565 34.8636 54.1365 35.4436 54.1365 36.1818C54.1365 36.92 53.5565 37.5 52.8183 37.5C52.0801 37.5 51.5001 36.92 51.5001 36.1818ZM51.5001 38.8182C51.5001 38.08 52.0801 37.5 52.8183 37.5C53.5565 37.5 54.1365 38.08 54.1365 38.8182C54.1365 39.5564 53.5565 40.1364 52.8183 40.1364C52.0801 40.1364 51.5001 39.5564 51.5001 38.8182ZM51.5001 41.4545C51.5001 40.7164 52.0801 40.1364 52.8183 40.1364C53.5565 40.1364 54.1365 40.7164 54.1365 41.4545C54.1365 42.1927 53.5565 42.7727 52.8183 42.7727C52.0801 42.7727 51.5001 42.1927 51.5001 41.4545ZM51.5001 44.0909C51.5001 43.3527 52.0801 42.7727 52.8183 42.7727C53.5565 42.7727 54.1365 43.3527 54.1365 44.0909C54.1365 44.8291 53.5565 45.4091 52.8183 45.4091C52.0801 45.4091 51.5001 44.8291 51.5001 44.0909ZM51.5001 46.7273C51.5001 45.9891 52.0801 45.4091 52.8183 45.4091C53.5565 45.4091 54.1365 45.9891 54.1365 46.7273C54.1365 47.4654 53.5565 48.0454 52.8183 48.0454C52.0801 48.0454 51.5001 47.4654 51.5001 46.7273ZM51.5001 49.3636C51.5001 48.6254 52.0801 48.0454 52.8183 48.0454C53.5565 48.0454 54.1365 48.6254 54.1365 49.3636C54.1365 50.1018 53.5565 50.6818 52.8183 50.6818C52.0801 50.6818 51.5001 50.1018 51.5001 49.3636Z" fill="#FACC15"/>
<defs>
<filter id="filter0_d_216_7852" x="0" y="0.5" width="74" height="74" filterUnits="userSpaceOnUse" color-interpolation-filters="sRGB">
<feFlood flood-opacity="0" result="BackgroundImageFix"/>
<feColorMatrix in="SourceAlpha" type="matrix" values="0 0 0 0 0 0 0 0 0 0 0 0 0 0 0 0 0 0 127 0" result="hardAlpha"/>
<feOffset/>
<feGaussianBlur stdDeviation="4"/>
<feComposite in2="hardAlpha" operator="out"/>
<feColorMatrix type="matrix" values="0 0 0 0 0 0 0 0 0 0 0 0 0 0 0 0 0 0 0.25 0"/>
<feBlend mode="normal" in2="BackgroundImageFix" result="effect1_dropShadow_216_7852"/>
<feBlend mode="normal" in="SourceGraphic" in2="effect1_dropShadow_216_7852" result="shape"/>
</filter>
</defs>
</svg>
