<svg width="74" height="74" viewBox="0 0 74 74" fill="none" xmlns="http://www.w3.org/2000/svg">
<g filter="url(#filter0_d_216_7977)">
<path d="M37 66C53.0163 66 66 53.0163 66 37C66 20.9837 53.0163 8 37 8C20.9837 8 8 20.9837 8 37C8 53.0163 20.9837 66 37 66Z" fill="white"/>
</g>
<path d="M36.9999 63.3637C51.5601 63.3637 63.3635 51.5603 63.3635 37.0001C63.3635 22.4399 51.5601 10.6365 36.9999 10.6365C22.4396 10.6365 10.6362 22.4399 10.6362 37.0001C10.6362 51.5603 22.4396 63.3637 36.9999 63.3637Z" fill="#E41920"/>
<path d="M19.8638 25.1363C19.8638 24.3981 20.4438 23.8181 21.182 23.8181C21.9201 23.8181 22.5001 24.3981 22.5001 25.1363C22.5001 25.8745 21.9201 26.4545 21.182 26.4545C20.4438 26.4545 19.8638 25.8745 19.8638 25.1363ZM19.8638 27.7727C19.8638 27.0345 20.4438 26.4545 21.182 26.4545C21.9201 26.4545 22.5001 27.0345 22.5001 27.7727C22.5001 28.5108 21.9201 29.0908 21.182 29.0908C20.4438 29.0908 19.8638 28.5108 19.8638 27.7727ZM19.8638 30.409C19.8638 29.6708 20.4438 29.0908 21.182 29.0908C21.9201 29.0908 22.5001 29.6708 22.5001 30.409C22.5001 31.1472 21.9201 31.7272 21.182 31.7272C20.4438 31.7272 19.8638 31.1472 19.8638 30.409ZM19.8638 33.0454C19.8638 32.3072 20.4438 31.7272 21.182 31.7272C21.9201 31.7272 22.5001 32.3072 22.5001 33.0454C22.5001 33.7836 21.9201 34.3636 21.182 34.3636C20.4438 34.3636 19.8638 33.7836 19.8638 33.0454ZM19.8638 35.6818C19.8638 34.9436 20.4438 34.3636 21.182 34.3636C21.9201 34.3636 22.5001 34.9436 22.5001 35.6818C22.5001 36.4199 21.9201 36.9999 21.182 36.9999C20.4438 36.9999 19.8638 36.4199 19.8638 35.6818ZM19.8638 38.3181C19.8638 37.5799 20.4438 36.9999 21.182 36.9999C21.9201 36.9999 22.5001 37.5799 22.5001 38.3181C22.5001 39.0563 21.9201 39.6363 21.182 39.6363C20.4438 39.6363 19.8638 39.0563 19.8638 38.3181ZM19.8638 40.9545C19.8638 40.2163 20.4438 39.6363 21.182 39.6363C21.9201 39.6363 22.5001 40.2163 22.5001 40.9545C22.5001 41.6927 21.9201 42.2727 21.182 42.2727C20.4438 42.2727 19.8638 41.6927 19.8638 40.9545ZM19.8638 43.5908C19.8638 42.8527 20.4438 42.2727 21.182 42.2727C21.9201 42.2727 22.5001 42.8527 22.5001 43.5908C22.5001 44.329 21.9201 44.909 21.182 44.909C20.4438 44.909 19.8638 44.329 19.8638 43.5908ZM19.8638 46.2272C19.8638 45.489 20.4438 44.909 21.182 44.909C21.9201 44.909 22.5001 45.489 22.5001 46.2272C22.5001 46.9654 21.9201 47.5454 21.182 47.5454C20.4438 47.5454 19.8638 46.9654 19.8638 46.2272ZM19.8638 48.8636C19.8638 48.1254 20.4438 47.5454 21.182 47.5454C21.9201 47.5454 22.5001 48.1254 22.5001 48.8636C22.5001 49.6018 21.9201 50.1818 21.182 50.1818C20.4438 50.1818 19.8638 49.6018 19.8638 48.8636ZM22.5001 25.1363C22.5001 24.3981 23.0801 23.8181 23.8183 23.8181C24.5565 23.8181 25.1365 24.3981 25.1365 25.1363C25.1365 25.8745 24.5565 26.4545 23.8183 26.4545C23.0801 26.4545 22.5001 25.8745 22.5001 25.1363ZM22.5001 27.7727C22.5001 27.0345 23.0801 26.4545 23.8183 26.4545C24.5565 26.4545 25.1365 27.0345 25.1365 27.7727C25.1365 28.5108 24.5565 29.0908 23.8183 29.0908C23.0801 29.0908 22.5001 28.5108 22.5001 27.7727ZM22.5001 30.409C22.5001 29.6708 23.0801 29.0908 23.8183 29.0908C24.5565 29.0908 25.1365 29.6708 25.1365 30.409C25.1365 31.1472 24.5565 31.7272 23.8183 31.7272C23.0801 31.7272 22.5001 31.1472 22.5001 30.409ZM22.5001 33.0454C22.5001 32.3072 23.0801 31.7272 23.8183 31.7272C24.5565 31.7272 25.1365 32.3072 25.1365 33.0454C25.1365 33.7836 24.5565 34.3636 23.8183 34.3636C23.0801 34.3636 22.5001 33.7836 22.5001 33.0454ZM22.5001 35.6818C22.5001 34.9436 23.0801 34.3636 23.8183 34.3636C24.5565 34.3636 25.1365 34.9436 25.1365 35.6818C25.1365 36.4199 24.5565 36.9999 23.8183 36.9999C23.0801 36.9999 22.5001 36.4199 22.5001 35.6818ZM22.5001 38.3181C22.5001 37.5799 23.0801 36.9999 23.8183 36.9999C24.5565 36.9999 25.1365 37.5799 25.1365 38.3181C25.1365 39.0563 24.5565 39.6363 23.8183 39.6363C23.0801 39.6363 22.5001 39.0563 22.5001 38.3181ZM22.5001 40.9545C22.5001 40.2163 23.0801 39.6363 23.8183 39.6363C24.5565 39.6363 25.1365 40.2163 25.1365 40.9545C25.1365 41.6927 24.5565 42.2727 23.8183 42.2727C23.0801 42.2727 22.5001 41.6927 22.5001 40.9545ZM22.5001 43.5908C22.5001 42.8527 23.0801 42.2727 23.8183 42.2727C24.5565 42.2727 25.1365 42.8527 25.1365 43.5908C25.1365 44.329 24.5565 44.909 23.8183 44.909C23.0801 44.909 22.5001 44.329 22.5001 43.5908ZM22.5001 46.2272C22.5001 45.489 23.0801 44.909 23.8183 44.909C24.5565 44.909 25.1365 45.489 25.1365 46.2272C25.1365 46.9654 24.5565 47.5454 23.8183 47.5454C23.0801 47.5454 22.5001 46.9654 22.5001 46.2272ZM22.5001 48.8636C22.5001 48.1254 23.0801 47.5454 23.8183 47.5454C24.5565 47.5454 25.1365 48.1254 25.1365 48.8636C25.1365 49.6018 24.5565 50.1818 23.8183 50.1818C23.0801 50.1818 22.5001 49.6018 22.5001 48.8636ZM25.1365 25.1363C25.1365 24.3981 25.7165 23.8181 26.4547 23.8181C27.1929 23.8181 27.7729 24.3981 27.7729 25.1363C27.7729 25.8745 27.1929 26.4545 26.4547 26.4545C25.7165 26.4545 25.1365 25.8745 25.1365 25.1363ZM25.1365 27.7727C25.1365 27.0345 25.7165 26.4545 26.4547 26.4545C27.1929 26.4545 27.7729 27.0345 27.7729 27.7727C27.7729 28.5108 27.1929 29.0908 26.4547 29.0908C25.7165 29.0908 25.1365 28.5108 25.1365 27.7727ZM25.1365 30.409C25.1365 29.6708 25.7165 29.0908 26.4547 29.0908C27.1929 29.0908 27.7729 29.6708 27.7729 30.409C27.7729 31.1472 27.1929 31.7272 26.4547 31.7272C25.7165 31.7272 25.1365 31.1472 25.1365 30.409ZM25.1365 33.0454C25.1365 32.3072 25.7165 31.7272 26.4547 31.7272C27.1929 31.7272 27.7729 32.3072 27.7729 33.0454C27.7729 33.7836 27.1929 34.3636 26.4547 34.3636C25.7165 34.3636 25.1365 33.7836 25.1365 33.0454ZM25.1365 35.6818C25.1365 34.9436 25.7165 34.3636 26.4547 34.3636C27.1929 34.3636 27.7729 34.9436 27.7729 35.6818C27.7729 36.4199 27.1929 36.9999 26.4547 36.9999C25.7165 36.9999 25.1365 36.4199 25.1365 35.6818ZM27.7729 25.1363C27.7729 24.3981 28.3529 23.8181 29.091 23.8181C29.8292 23.8181 30.4092 24.3981 30.4092 25.1363C30.4092 25.8745 29.8292 26.4545 29.091 26.4545C28.3529 26.4545 27.7729 25.8745 27.7729 25.1363ZM27.7729 27.7727C27.7729 27.0345 28.3529 26.4545 29.091 26.4545C29.8292 26.4545 30.4092 27.0345 30.4092 27.7727C30.4092 28.5108 29.8292 29.0908 29.091 29.0908C28.3529 29.0908 27.7729 28.5108 27.7729 27.7727ZM27.7729 30.409C27.7729 29.6708 28.3529 29.0908 29.091 29.0908C29.8292 29.0908 30.4092 29.6708 30.4092 30.409C30.4092 31.1472 29.8292 31.7272 29.091 31.7272C28.3529 31.7272 27.7729 31.1472 27.7729 30.409ZM27.7729 33.0454C27.7729 32.3072 28.3529 31.7272 29.091 31.7272C29.8292 31.7272 30.4092 32.3072 30.4092 33.0454C30.4092 33.7836 29.8292 34.3636 29.091 34.3636C28.3529 34.3636 27.7729 33.7836 27.7729 33.0454ZM27.7729 35.6818C27.7729 34.9436 28.3529 34.3636 29.091 34.3636C29.8292 34.3636 30.4092 34.9436 30.4092 35.6818C30.4092 36.4199 29.8292 36.9999 29.091 36.9999C28.3529 36.9999 27.7729 36.4199 27.7729 35.6818ZM27.7729 38.3181C27.7729 37.5799 28.3529 36.9999 29.091 36.9999C29.8292 36.9999 30.4092 37.5799 30.4092 38.3181C30.4092 39.0563 29.8292 39.6363 29.091 39.6363C28.3529 39.6363 27.7729 39.0563 27.7729 38.3181ZM27.7729 40.9545C27.7729 40.2163 28.3529 39.6363 29.091 39.6363C29.8292 39.6363 30.4092 40.2163 30.4092 40.9545C30.4092 41.6927 29.8292 42.2727 29.091 42.2727C28.3529 42.2727 27.7729 41.6927 27.7729 40.9545ZM30.4092 30.409C30.4092 29.6708 30.9892 29.0908 31.7274 29.0908C32.4656 29.0908 33.0456 29.6708 33.0456 30.409C33.0456 31.1472 32.4656 31.7272 31.7274 31.7272C30.9892 31.7272 30.4092 31.1472 30.4092 30.409ZM30.4092 33.0454C30.4092 32.3072 30.9892 31.7272 31.7274 31.7272C32.4656 31.7272 33.0456 32.3072 33.0456 33.0454C33.0456 33.7836 32.4656 34.3636 31.7274 34.3636C30.9892 34.3636 30.4092 33.7836 30.4092 33.0454ZM30.4092 35.6818C30.4092 34.9436 30.9892 34.3636 31.7274 34.3636C32.4656 34.3636 33.0456 34.9436 33.0456 35.6818C33.0456 36.4199 32.4656 36.9999 31.7274 36.9999C30.9892 36.9999 30.4092 36.4199 30.4092 35.6818ZM30.4092 38.3181C30.4092 37.5799 30.9892 36.9999 31.7274 36.9999C32.4656 36.9999 33.0456 37.5799 33.0456 38.3181C33.0456 39.0563 32.4656 39.6363 31.7274 39.6363C30.9892 39.6363 30.4092 39.0563 30.4092 38.3181ZM30.4092 40.9545C30.4092 40.2163 30.9892 39.6363 31.7274 39.6363C32.4656 39.6363 33.0456 40.2163 33.0456 40.9545C33.0456 41.6927 32.4656 42.2727 31.7274 42.2727C30.9892 42.2727 30.4092 41.6927 30.4092 40.9545ZM30.4092 43.5908C30.4092 42.8527 30.9892 42.2727 31.7274 42.2727C32.4656 42.2727 33.0456 42.8527 33.0456 43.5908C33.0456 44.329 32.4656 44.909 31.7274 44.909C30.9892 44.909 30.4092 44.329 30.4092 43.5908ZM30.4092 46.2272C30.4092 45.489 30.9892 44.909 31.7274 44.909C32.4656 44.909 33.0456 45.489 33.0456 46.2272C33.0456 46.9654 32.4656 47.5454 31.7274 47.5454C30.9892 47.5454 30.4092 46.9654 30.4092 46.2272ZM33.0456 35.6818C33.0456 34.9436 33.6256 34.3636 34.3638 34.3636C35.102 34.3636 35.682 34.9436 35.682 35.6818C35.682 36.4199 35.102 36.9999 34.3638 36.9999C33.6256 36.9999 33.0456 36.4199 33.0456 35.6818ZM33.0456 38.3181C33.0456 37.5799 33.6256 36.9999 34.3638 36.9999C35.102 36.9999 35.682 37.5799 35.682 38.3181C35.682 39.0563 35.102 39.6363 34.3638 39.6363C33.6256 39.6363 33.0456 39.0563 33.0456 38.3181ZM33.0456 40.9545C33.0456 40.2163 33.6256 39.6363 34.3638 39.6363C35.102 39.6363 35.682 40.2163 35.682 40.9545C35.682 41.6927 35.102 42.2727 34.3638 42.2727C33.6256 42.2727 33.0456 41.6927 33.0456 40.9545ZM33.0456 43.5908C33.0456 42.8527 33.6256 42.2727 34.3638 42.2727C35.102 42.2727 35.682 42.8527 35.682 43.5908C35.682 44.329 35.102 44.909 34.3638 44.909C33.6256 44.909 33.0456 44.329 33.0456 43.5908ZM33.0456 46.2272C33.0456 45.489 33.6256 44.909 34.3638 44.909C35.102 44.909 35.682 45.489 35.682 46.2272C35.682 46.9654 35.102 47.5454 34.3638 47.5454C33.6256 47.5454 33.0456 46.9654 33.0456 46.2272ZM33.0456 48.8636C33.0456 48.1254 33.6256 47.5454 34.3638 47.5454C35.102 47.5454 35.682 48.1254 35.682 48.8636C35.682 49.6018 35.102 50.1818 34.3638 50.1818C33.6256 50.1818 33.0456 49.6018 33.0456 48.8636ZM35.682 40.9545C35.682 40.2163 36.262 39.6363 37.0001 39.6363C37.7383 39.6363 38.3183 40.2163 38.3183 40.9545C38.3183 41.6927 37.7383 42.2727 37.0001 42.2727C36.262 42.2727 35.682 41.6927 35.682 40.9545ZM35.682 43.5908C35.682 42.8527 36.262 42.2727 37.0001 42.2727C37.7383 42.2727 38.3183 42.8527 38.3183 43.5908C38.3183 44.329 37.7383 44.909 37.0001 44.909C36.262 44.909 35.682 44.329 35.682 43.5908ZM35.682 46.2272C35.682 45.489 36.262 44.909 37.0001 44.909C37.7383 44.909 38.3183 45.489 38.3183 46.2272C38.3183 46.9654 37.7383 47.5454 37.0001 47.5454C36.262 47.5454 35.682 46.9654 35.682 46.2272ZM35.682 48.8636C35.682 48.1254 36.262 47.5454 37.0001 47.5454C37.7383 47.5454 38.3183 48.1254 38.3183 48.8636C38.3183 49.6018 37.7383 50.1818 37.0001 50.1818C36.262 50.1818 35.682 49.6018 35.682 48.8636ZM38.3183 35.6818C38.3183 34.9436 38.8983 34.3636 39.6365 34.3636C40.3747 34.3636 40.9547 34.9436 40.9547 35.6818C40.9547 36.4199 40.3747 36.9999 39.6365 36.9999C38.8983 36.9999 38.3183 36.4199 38.3183 35.6818ZM38.3183 38.3181C38.3183 37.5799 38.8983 36.9999 39.6365 36.9999C40.3747 36.9999 40.9547 37.5799 40.9547 38.3181C40.9547 39.0563 40.3747 39.6363 39.6365 39.6363C38.8983 39.6363 38.3183 39.0563 38.3183 38.3181ZM38.3183 40.9545C38.3183 40.2163 38.8983 39.6363 39.6365 39.6363C40.3747 39.6363 40.9547 40.2163 40.9547 40.9545C40.9547 41.6927 40.3747 42.2727 39.6365 42.2727C38.8983 42.2727 38.3183 41.6927 38.3183 40.9545ZM38.3183 43.5908C38.3183 42.8527 38.8983 42.2727 39.6365 42.2727C40.3747 42.2727 40.9547 42.8527 40.9547 43.5908C40.9547 44.329 40.3747 44.909 39.6365 44.909C38.8983 44.909 38.3183 44.329 38.3183 43.5908ZM38.3183 46.2272C38.3183 45.489 38.8983 44.909 39.6365 44.909C40.3747 44.909 40.9547 45.489 40.9547 46.2272C40.9547 46.9654 40.3747 47.5454 39.6365 47.5454C38.8983 47.5454 38.3183 46.9654 38.3183 46.2272ZM40.9547 30.409C40.9547 29.6708 41.5347 29.0908 42.2729 29.0908C43.011 29.0908 43.591 29.6708 43.591 30.409C43.591 31.1472 43.011 31.7272 42.2729 31.7272C41.5347 31.7272 40.9547 31.1472 40.9547 30.409ZM40.9547 33.0454C40.9547 32.3072 41.5347 31.7272 42.2729 31.7272C43.011 31.7272 43.591 32.3072 43.591 33.0454C43.591 33.7836 43.011 34.3636 42.2729 34.3636C41.5347 34.3636 40.9547 33.7836 40.9547 33.0454ZM40.9547 35.6818C40.9547 34.9436 41.5347 34.3636 42.2729 34.3636C43.011 34.3636 43.591 34.9436 43.591 35.6818C43.591 36.4199 43.011 36.9999 42.2729 36.9999C41.5347 36.9999 40.9547 36.4199 40.9547 35.6818ZM40.9547 38.3181C40.9547 37.5799 41.5347 36.9999 42.2729 36.9999C43.011 36.9999 43.591 37.5799 43.591 38.3181C43.591 39.0563 43.011 39.6363 42.2729 39.6363C41.5347 39.6363 40.9547 39.0563 40.9547 38.3181ZM40.9547 40.9545C40.9547 40.2163 41.5347 39.6363 42.2729 39.6363C43.011 39.6363 43.591 40.2163 43.591 40.9545C43.591 41.6927 43.011 42.2727 42.2729 42.2727C41.5347 42.2727 40.9547 41.6927 40.9547 40.9545ZM43.591 25.1363C43.591 24.3981 44.171 23.8181 44.9092 23.8181C45.6474 23.8181 46.2274 24.3981 46.2274 25.1363C46.2274 25.8745 45.6474 26.4545 44.9092 26.4545C44.171 26.4545 43.591 25.8745 43.591 25.1363ZM43.591 27.7727C43.591 27.0345 44.171 26.4545 44.9092 26.4545C45.6474 26.4545 46.2274 27.0345 46.2274 27.7727C46.2274 28.5108 45.6474 29.0908 44.9092 29.0908C44.171 29.0908 43.591 28.5108 43.591 27.7727ZM43.591 30.409C43.591 29.6708 44.171 29.0908 44.9092 29.0908C45.6474 29.0908 46.2274 29.6708 46.2274 30.409C46.2274 31.1472 45.6474 31.7272 44.9092 31.7272C44.171 31.7272 43.591 31.1472 43.591 30.409ZM43.591 33.0454C43.591 32.3072 44.171 31.7272 44.9092 31.7272C45.6474 31.7272 46.2274 32.3072 46.2274 33.0454C46.2274 33.7836 45.6474 34.3636 44.9092 34.3636C44.171 34.3636 43.591 33.7836 43.591 33.0454ZM43.591 35.6818C43.591 34.9436 44.171 34.3636 44.9092 34.3636C45.6474 34.3636 46.2274 34.9436 46.2274 35.6818C46.2274 36.4199 45.6474 36.9999 44.9092 36.9999C44.171 36.9999 43.591 36.4199 43.591 35.6818ZM46.2274 25.1363C46.2274 24.3981 46.8074 23.8181 47.5456 23.8181C48.2838 23.8181 48.8638 24.3981 48.8638 25.1363C48.8638 25.8745 48.2838 26.4545 47.5456 26.4545C46.8074 26.4545 46.2274 25.8745 46.2274 25.1363ZM46.2274 27.7727C46.2274 27.0345 46.8074 26.4545 47.5456 26.4545C48.2838 26.4545 48.8638 27.0345 48.8638 27.7727C48.8638 28.5108 48.2838 29.0908 47.5456 29.0908C46.8074 29.0908 46.2274 28.5108 46.2274 27.7727ZM46.2274 30.409C46.2274 29.6708 46.8074 29.0908 47.5456 29.0908C48.2838 29.0908 48.8638 29.6708 48.8638 30.409C48.8638 31.1472 48.2838 31.7272 47.5456 31.7272C46.8074 31.7272 46.2274 31.1472 46.2274 30.409ZM46.2274 33.0454C46.2274 32.3072 46.8074 31.7272 47.5456 31.7272C48.2838 31.7272 48.8638 32.3072 48.8638 33.0454C48.8638 33.7836 48.2838 34.3636 47.5456 34.3636C46.8074 34.3636 46.2274 33.7836 46.2274 33.0454ZM46.2274 35.6818C46.2274 34.9436 46.8074 34.3636 47.5456 34.3636C48.2838 34.3636 48.8638 34.9436 48.8638 35.6818C48.8638 36.4199 48.2838 36.9999 47.5456 36.9999C46.8074 36.9999 46.2274 36.4199 46.2274 35.6818ZM46.2274 38.3181C46.2274 37.5799 46.8074 36.9999 47.5456 36.9999C48.2838 36.9999 48.8638 37.5799 48.8638 38.3181C48.8638 39.0563 48.2838 39.6363 47.5456 39.6363C46.8074 39.6363 46.2274 39.0563 46.2274 38.3181ZM46.2274 40.9545C46.2274 40.2163 46.8074 39.6363 47.5456 39.6363C48.2838 39.6363 48.8638 40.2163 48.8638 40.9545C48.8638 41.6927 48.2838 42.2727 47.5456 42.2727C46.8074 42.2727 46.2274 41.6927 46.2274 40.9545ZM46.2274 43.5908C46.2274 42.8527 46.8074 42.2727 47.5456 42.2727C48.2838 42.2727 48.8638 42.8527 48.8638 43.5908C48.8638 44.329 48.2838 44.909 47.5456 44.909C46.8074 44.909 46.2274 44.329 46.2274 43.5908ZM46.2274 46.2272C46.2274 45.489 46.8074 44.909 47.5456 44.909C48.2838 44.909 48.8638 45.489 48.8638 46.2272C48.8638 46.9654 48.2838 47.5454 47.5456 47.5454C46.8074 47.5454 46.2274 46.9654 46.2274 46.2272ZM46.2274 48.8636C46.2274 48.1254 46.8074 47.5454 47.5456 47.5454C48.2838 47.5454 48.8638 48.1254 48.8638 48.8636C48.8638 49.6018 48.2838 50.1818 47.5456 50.1818C46.8074 50.1818 46.2274 49.6018 46.2274 48.8636ZM48.8638 25.1363C48.8638 24.3981 49.4438 23.8181 50.182 23.8181C50.9201 23.8181 51.5001 24.3981 51.5001 25.1363C51.5001 25.8745 50.9201 26.4545 50.182 26.4545C49.4438 26.4545 48.8638 25.8745 48.8638 25.1363ZM48.8638 27.7727C48.8638 27.0345 49.4438 26.4545 50.182 26.4545C50.9201 26.4545 51.5001 27.0345 51.5001 27.7727C51.5001 28.5108 50.9201 29.0908 50.182 29.0908C49.4438 29.0908 48.8638 28.5108 48.8638 27.7727ZM48.8638 30.409C48.8638 29.6708 49.4438 29.0908 50.182 29.0908C50.9201 29.0908 51.5001 29.6708 51.5001 30.409C51.5001 31.1472 50.9201 31.7272 50.182 31.7272C49.4438 31.7272 48.8638 31.1472 48.8638 30.409ZM48.8638 33.0454C48.8638 32.3072 49.4438 31.7272 50.182 31.7272C50.9201 31.7272 51.5001 32.3072 51.5001 33.0454C51.5001 33.7836 50.9201 34.3636 50.182 34.3636C49.4438 34.3636 48.8638 33.7836 48.8638 33.0454ZM48.8638 35.6818C48.8638 34.9436 49.4438 34.3636 50.182 34.3636C50.9201 34.3636 51.5001 34.9436 51.5001 35.6818C51.5001 36.4199 50.9201 36.9999 50.182 36.9999C49.4438 36.9999 48.8638 36.4199 48.8638 35.6818ZM48.8638 38.3181C48.8638 37.5799 49.4438 36.9999 50.182 36.9999C50.9201 36.9999 51.5001 37.5799 51.5001 38.3181C51.5001 39.0563 50.9201 39.6363 50.182 39.6363C49.4438 39.6363 48.8638 39.0563 48.8638 38.3181ZM48.8638 40.9545C48.8638 40.2163 49.4438 39.6363 50.182 39.6363C50.9201 39.6363 51.5001 40.2163 51.5001 40.9545C51.5001 41.6927 50.9201 42.2727 50.182 42.2727C49.4438 42.2727 48.8638 41.6927 48.8638 40.9545ZM48.8638 43.5908C48.8638 42.8527 49.4438 42.2727 50.182 42.2727C50.9201 42.2727 51.5001 42.8527 51.5001 43.5908C51.5001 44.329 50.9201 44.909 50.182 44.909C49.4438 44.909 48.8638 44.329 48.8638 43.5908ZM48.8638 46.2272C48.8638 45.489 49.4438 44.909 50.182 44.909C50.9201 44.909 51.5001 45.489 51.5001 46.2272C51.5001 46.9654 50.9201 47.5454 50.182 47.5454C49.4438 47.5454 48.8638 46.9654 48.8638 46.2272ZM48.8638 48.8636C48.8638 48.1254 49.4438 47.5454 50.182 47.5454C50.9201 47.5454 51.5001 48.1254 51.5001 48.8636C51.5001 49.6018 50.9201 50.1818 50.182 50.1818C49.4438 50.1818 48.8638 49.6018 48.8638 48.8636ZM51.5001 25.1363C51.5001 24.3981 52.0801 23.8181 52.8183 23.8181C53.5565 23.8181 54.1365 24.3981 54.1365 25.1363C54.1365 25.8745 53.5565 26.4545 52.8183 26.4545C52.0801 26.4545 51.5001 25.8745 51.5001 25.1363ZM51.5001 27.7727C51.5001 27.0345 52.0801 26.4545 52.8183 26.4545C53.5565 26.4545 54.1365 27.0345 54.1365 27.7727C54.1365 28.5108 53.5565 29.0908 52.8183 29.0908C52.0801 29.0908 51.5001 28.5108 51.5001 27.7727ZM51.5001 30.409C51.5001 29.6708 52.0801 29.0908 52.8183 29.0908C53.5565 29.0908 54.1365 29.6708 54.1365 30.409C54.1365 31.1472 53.5565 31.7272 52.8183 31.7272C52.0801 31.7272 51.5001 31.1472 51.5001 30.409ZM51.5001 33.0454C51.5001 32.3072 52.0801 31.7272 52.8183 31.7272C53.5565 31.7272 54.1365 32.3072 54.1365 33.0454C54.1365 33.7836 53.5565 34.3636 52.8183 34.3636C52.0801 34.3636 51.5001 33.7836 51.5001 33.0454ZM51.5001 35.6818C51.5001 34.9436 52.0801 34.3636 52.8183 34.3636C53.5565 34.3636 54.1365 34.9436 54.1365 35.6818C54.1365 36.4199 53.5565 36.9999 52.8183 36.9999C52.0801 36.9999 51.5001 36.4199 51.5001 35.6818ZM51.5001 38.3181C51.5001 37.5799 52.0801 36.9999 52.8183 36.9999C53.5565 36.9999 54.1365 37.5799 54.1365 38.3181C54.1365 39.0563 53.5565 39.6363 52.8183 39.6363C52.0801 39.6363 51.5001 39.0563 51.5001 38.3181ZM51.5001 40.9545C51.5001 40.2163 52.0801 39.6363 52.8183 39.6363C53.5565 39.6363 54.1365 40.2163 54.1365 40.9545C54.1365 41.6927 53.5565 42.2727 52.8183 42.2727C52.0801 42.2727 51.5001 41.6927 51.5001 40.9545ZM51.5001 43.5908C51.5001 42.8527 52.0801 42.2727 52.8183 42.2727C53.5565 42.2727 54.1365 42.8527 54.1365 43.5908C54.1365 44.329 53.5565 44.909 52.8183 44.909C52.0801 44.909 51.5001 44.329 51.5001 43.5908ZM51.5001 46.2272C51.5001 45.489 52.0801 44.909 52.8183 44.909C53.5565 44.909 54.1365 45.489 54.1365 46.2272C54.1365 46.9654 53.5565 47.5454 52.8183 47.5454C52.0801 47.5454 51.5001 46.9654 51.5001 46.2272ZM51.5001 48.8636C51.5001 48.1254 52.0801 47.5454 52.8183 47.5454C53.5565 47.5454 54.1365 48.1254 54.1365 48.8636C54.1365 49.6018 53.5565 50.1818 52.8183 50.1818C52.0801 50.1818 51.5001 49.6018 51.5001 48.8636Z" fill="white"/>
<defs>
<filter id="filter0_d_216_7977" x="0" y="0" width="74" height="74" filterUnits="userSpaceOnUse" color-interpolation-filters="sRGB">
<feFlood flood-opacity="0" result="BackgroundImageFix"/>
<feColorMatrix in="SourceAlpha" type="matrix" values="0 0 0 0 0 0 0 0 0 0 0 0 0 0 0 0 0 0 127 0" result="hardAlpha"/>
<feOffset/>
<feGaussianBlur stdDeviation="4"/>
<feComposite in2="hardAlpha" operator="out"/>
<feColorMatrix type="matrix" values="0 0 0 0 0 0 0 0 0 0 0 0 0 0 0 0 0 0 0.25 0"/>
<feBlend mode="normal" in2="BackgroundImageFix" result="effect1_dropShadow_216_7977"/>
<feBlend mode="normal" in="SourceGraphic" in2="effect1_dropShadow_216_7977" result="shape"/>
</filter>
</defs>
</svg>
